<svg width="553" height="433" viewBox="0 0 553 433" fill="none" xmlns="http://www.w3.org/2000/svg">
<path fill-rule="evenodd" clip-rule="evenodd" d="M152.775 193.611C152.775 193.611 99.182 187.591 78.429 226.325C71.4454 239.358 19.6834 360.217 14.1962 407.847C14.1962 407.847 1.73126 411.789 0 418.188H73.4293C74.2074 418.188 74.9094 417.72 75.2094 417.002C80.5674 404.183 127.585 291.688 127.585 291.688C127.585 291.688 133.631 393.662 134.865 414.496C134.989 416.57 136.706 418.188 138.783 418.188C152.703 418.188 201.188 418.188 201.188 418.188C201.188 418.188 199.467 411.466 186.875 407.847C186.875 407.847 193.684 249.218 174.781 209.501L152.775 193.611Z" fill="url(#paint0_linear)"/>
<path fill-rule="evenodd" clip-rule="evenodd" d="M117.164 316.592L123.792 249.72C123.838 249.255 124.233 248.905 124.701 248.917C125.166 248.929 125.543 249.3 125.564 249.768L127.454 291.975L117.164 316.592Z" fill="#13524E"/>
<path fill-rule="evenodd" clip-rule="evenodd" d="M188.072 346.73C188.072 347.744 188.069 348.749 188.066 349.748H131.03L130.852 346.73H188.072ZM30.3039 346.73H104.585L103.324 349.748H29.291L29.307 349.7C29.6272 348.74 29.9493 347.783 30.2728 346.824L30.3039 346.73Z" fill="#82B5B2"/>
<path d="M111.724 100.727C122.617 100.727 131.447 91.8965 131.447 81.0035C131.447 70.1105 122.617 61.28 111.724 61.28C100.831 61.28 92.0002 70.1105 92.0002 81.0035C92.0002 91.8965 100.831 100.727 111.724 100.727Z" fill="#A8CFCC"/>
<path fill-rule="evenodd" clip-rule="evenodd" d="M110.267 61.3303C111.263 65.3503 112.703 75.488 105.209 84.4455C104.415 83.1591 102.977 82.2989 101.337 82.2989C98.8377 82.2989 96.8089 84.2964 96.8089 86.7562C96.8089 89.2164 98.8377 91.2138 101.337 91.2138C101.769 91.2138 102.188 91.1538 102.584 91.0421C102.64 92.5956 102.239 94.7675 100.334 97.1006C95.2931 93.527 92.0002 87.6454 92.0002 81.0008C92.0002 70.6048 100.06 62.0767 110.267 61.3303Z" fill="black"/>
<path fill-rule="evenodd" clip-rule="evenodd" d="M95.4836 90.9863C94.9228 91.3153 93.5106 91.2658 92.8683 91.3947C90.7616 91.817 88.6669 92.3068 86.5813 92.8223C80.1311 94.4162 73.7726 96.3343 67.7551 99.1835C63.3772 101.256 58.7934 103.881 56.722 108.474C53.711 115.152 59.0623 121.145 66.0193 120.518C72.7289 119.913 77.9947 115.052 82.4653 110.48C87.6959 105.132 93.6684 99.3667 97.6787 92.9835" fill="black"/>
<path fill-rule="evenodd" clip-rule="evenodd" d="M72.4893 135.318C69.1511 138.874 39.7837 170.981 17.7181 195.75C10.3149 204.128 9.64429 216.497 16.0982 225.627C16.0973 225.63 16.0976 225.63 16.0976 225.63C21.7661 233.65 32.026 236.997 41.3333 233.864C51.4181 230.466 65.1912 222.618 81.2195 205.037C89.3615 196.106 95.8341 187.951 101.175 182.958C101.175 182.958 124.607 190.496 136.659 177.576C136.659 177.576 166.08 215.169 194.554 230.155C205.815 236.01 219.69 232.08 226.206 221.188C229.24 216.159 230.514 210.105 227.1 203.531C212.154 174.738 188.684 152.952 152.812 118.461C145.849 111.765 133.674 102.2 110.092 107.658C101.207 109.715 90.3774 116.258 72.4893 135.318Z" fill="#A8CFCC"/>
<path fill-rule="evenodd" clip-rule="evenodd" d="M124.066 158.983C124.066 158.983 124.839 158.783 125.751 158.866C126.523 158.936 127.438 159.209 127.909 160.181C128.539 161.489 127.586 162.569 126.131 163.672C123.182 165.909 117.988 167.866 113.388 169.739C112.769 169.99 112.473 170.695 112.724 171.313C112.974 171.93 113.681 172.227 114.296 171.976C119.104 170.019 124.51 167.933 127.592 165.595C130.163 163.645 131.199 161.446 130.082 159.132C129.17 157.244 127.468 156.597 125.968 156.461C124.607 156.338 123.451 156.648 123.451 156.648C122.805 156.819 122.422 157.48 122.591 158.124C122.763 158.768 123.424 159.153 124.066 158.983Z" fill="#82B5B2"/>
<path fill-rule="evenodd" clip-rule="evenodd" d="M133.511 154.054C133.511 154.054 134.947 152.661 136.903 151.549C138.126 150.855 139.556 150.252 140.96 150.26C141.533 150.26 142.073 150.509 142.445 150.942C142.816 151.374 142.979 151.946 142.891 152.508C142.656 153.864 142.01 155.704 140.344 157.46C138.053 159.876 132.255 167.171 113.79 169.509C113.129 169.593 112.661 170.198 112.745 170.859C112.83 171.52 113.434 171.988 114.094 171.905C133.583 169.436 139.677 161.673 142.098 159.122C144.18 156.928 144.974 154.623 145.276 152.899C145.472 151.617 145.107 150.337 144.28 149.37C143.45 148.404 142.242 147.847 140.969 147.845C139.158 147.836 137.29 148.553 135.711 149.449C133.469 150.723 131.827 152.322 131.827 152.322C131.35 152.787 131.338 153.552 131.802 154.03C132.267 154.507 133.031 154.518 133.511 154.054Z" fill="#82B5B2"/>
<path fill-rule="evenodd" clip-rule="evenodd" d="M136.65 161.963C136.65 161.963 133.557 169.86 130.502 172.911C130.031 173.383 130.031 174.148 130.502 174.619C130.973 175.09 131.74 175.09 132.211 174.619C135.5 171.33 138.896 162.853 138.896 162.853C139.14 162.234 138.839 161.531 138.217 161.286C137.598 161.04 136.895 161.344 136.65 161.963Z" fill="#82B5B2"/>
<path fill-rule="evenodd" clip-rule="evenodd" d="M127.331 167.17V170.012C127.331 170.678 127.871 171.219 128.538 171.219C129.202 171.219 129.745 170.678 129.745 170.012V167.17C129.745 166.504 129.202 165.963 128.538 165.963C127.871 165.963 127.331 166.504 127.331 167.17Z" fill="#82B5B2"/>
<path fill-rule="evenodd" clip-rule="evenodd" d="M135.965 121.551C135.965 121.551 134.034 122.352 133.125 124.553C132.567 125.905 132.362 127.826 133.418 130.464C134.637 133.505 137.773 142.504 133.511 149.431C133.161 149.998 133.339 150.742 133.904 151.092C134.474 151.441 135.217 151.264 135.567 150.696C140.318 142.979 137.016 132.954 135.657 129.566C134.927 127.737 134.969 126.412 135.356 125.475C135.866 124.245 136.913 123.771 136.913 123.771C137.526 123.509 137.812 122.799 137.55 122.187C137.287 121.574 136.578 121.289 135.965 121.551Z" fill="#82B5B2"/>
<path fill-rule="evenodd" clip-rule="evenodd" d="M89.8456 195.279C87.1932 198.33 84.328 201.626 81.2195 205.037C65.1912 222.618 51.4181 230.466 41.3333 233.864C32.026 236.997 21.7661 233.65 16.0976 225.63C16.0976 225.63 16.0973 225.63 16.0982 225.627C9.64429 216.497 10.3149 204.128 17.7181 195.75C39.7837 170.981 69.1511 138.874 72.4893 135.318C90.3774 116.258 101.207 109.715 110.092 107.658C133.674 102.2 145.849 111.765 152.812 118.461C188.684 152.952 212.154 174.738 227.1 203.531C230.514 210.105 229.24 216.159 226.206 221.188C220.943 229.986 210.877 234.241 201.267 232.467L193.103 229.373C183.269 223.94 173.381 215.939 164.686 207.838C159.736 202.695 156.344 198.777 156.344 198.777L170.768 163.158L147.536 146.685C146.558 139.946 146.172 135.638 144.086 131.173C143.519 129.951 142.822 128.717 141.95 127.419C137.896 121.374 135.343 124.972 135.343 124.972C133.459 122.647 131.712 121.576 130.547 121.085C129.931 120.84 129.24 120.883 128.66 121.202C128.084 121.522 127.679 122.084 127.559 122.733C127.278 124.331 128.256 126.133 128.784 126.96C128.947 127.21 129.134 127.445 129.342 127.66C140.791 139.495 134.461 152.78 134.461 152.78C128.805 159.742 118.706 159.577 118.706 159.577C111.321 160.171 106.676 157.894 104.041 155.818C100.124 152.739 94.9434 151.785 90.1861 153.264C78.5749 156.965 66.0463 167.988 66.0463 167.988L89.8456 195.279Z" fill="url(#paint1_linear)"/>
<path fill-rule="evenodd" clip-rule="evenodd" d="M101.16 182.968L112.995 169.731C112.995 169.731 127.256 176.242 131.775 171.148L137.506 178.699C136.918 177.971 136.61 177.575 136.61 177.575C124.824 190.212 102.147 183.278 101.16 182.968Z" fill="#82B5B2"/>
<path fill-rule="evenodd" clip-rule="evenodd" d="M68.6671 165.796C66.9956 167.123 66.0119 167.989 66.0119 167.989L67.9593 170.222L32.5684 199.56C31.9271 200.091 30.9751 200.001 30.4433 199.361C29.9118 198.718 30.0008 197.767 30.6422 197.236L68.2952 166.023C68.4105 165.927 68.5361 165.851 68.6671 165.796ZM168.995 161.926C169.312 161.946 169.629 162.066 169.888 162.291L204.353 192.157C204.981 192.703 205.051 193.656 204.504 194.286C203.958 194.915 203.004 194.983 202.376 194.438L169.577 166.016L170.733 163.159L168.995 161.926ZM72.1 163.181C72.2778 160.275 72.7815 154.589 74.1488 149.614C74.2961 149.156 74.728 148.849 75.2097 148.86C75.6914 148.872 76.1079 149.2 76.2326 149.665C76.9744 152.418 77.9916 156.207 78.6767 158.761C76.2483 160.245 74.0039 161.79 72.1 163.181ZM155.286 152.206L156.904 144.505C156.964 144.216 157.197 143.995 157.486 143.948C157.776 143.9 158.066 144.035 158.214 144.289C159.128 146.309 160.505 150.2 161.172 156.38L155.286 152.206Z" fill="#13524E"/>
<path d="M117.613 160.143C128.2 160.143 136.783 151.678 136.783 141.236C136.783 130.793 128.2 122.328 117.613 122.328C107.025 122.328 98.4424 130.793 98.4424 141.236C98.4424 151.678 107.025 160.143 117.613 160.143Z" fill="#FFCD80"/>
<path d="M117.526 156.96C126.398 156.96 133.59 149.866 133.59 141.116C133.59 132.366 126.398 125.273 117.526 125.273C108.654 125.273 101.462 132.366 101.462 141.116C101.462 149.866 108.654 156.96 117.526 156.96Z" fill="#FFB000"/>
<path d="M112.155 147.344C113.934 148.638 115.963 149.213 118.276 149.126C121.03 148.958 122.33 147.921 122.265 146.01C122.164 144.455 121.184 143.562 119.326 143.332C118.459 143.258 117.533 143.187 116.516 143.091C114.689 142.889 113.253 142.284 112.238 141.304C111.191 140.297 110.633 139.03 110.534 137.504C110.416 135.684 110.913 134.187 112.085 133.009C113.198 131.834 114.85 131.192 117.012 131.053C119.652 130.979 121.982 131.598 123.997 132.88L122.389 135.581C120.752 134.634 118.968 134.164 117.069 134.23C116.092 134.28 115.277 134.556 114.658 135.088C114.009 135.621 113.703 136.402 113.738 137.401C113.778 138.018 114.049 138.534 114.556 139.009C115.063 139.484 115.854 139.768 116.904 139.921C117.473 139.981 118.281 140.058 119.296 140.124C121.298 140.288 122.796 140.92 123.818 142.016C124.81 143.085 125.368 144.352 125.465 145.849C125.636 149.845 123.278 151.995 118.452 152.297C115.341 152.454 112.582 151.621 110.206 149.827L112.155 147.344Z" fill="#FFCD80"/>
<path fill-rule="evenodd" clip-rule="evenodd" d="M116.607 128.408L116.054 154.681L119.715 154.681L119.715 128.408L116.607 128.408Z" fill="#FFCD80"/>
<path fill-rule="evenodd" clip-rule="evenodd" d="M42.5626 372.556C40.7402 372.227 39.3567 370.63 39.3567 368.714V360.903C39.3567 358.748 41.1066 356.997 43.262 356.997H87.1304C89.2861 356.997 91.036 358.748 91.036 360.903V368.714C91.036 370.63 89.6525 372.227 87.8301 372.556C89.6525 372.888 91.036 374.485 91.036 376.401V384.212C91.036 386.129 89.6525 387.723 87.8301 388.055C89.6525 388.384 91.036 389.98 91.036 391.897V399.708C91.036 401.625 89.6525 403.221 87.8301 403.55C89.6525 403.882 91.036 405.476 91.036 407.392V415.204C91.036 417.359 89.2861 419.109 87.1304 419.109H43.262C41.1066 419.109 39.3567 417.359 39.3567 415.204V407.392C39.3567 405.476 40.7402 403.882 42.5626 403.55C40.7402 403.221 39.3567 401.625 39.3567 399.708V391.897C39.3567 389.98 40.7402 388.384 42.5626 388.055C40.7402 387.723 39.3567 386.129 39.3567 384.212V376.401C39.3567 374.485 40.7402 372.888 42.5626 372.556Z" fill="#FFCD80"/>
<path fill-rule="evenodd" clip-rule="evenodd" d="M80.7058 356.997V369.496H90.8368C90.8857 369.496 90.934 369.499 90.9814 369.502C90.6775 370.987 89.5314 372.164 88.0655 372.514H87.9876V372.532C87.9438 372.541 87.8998 372.55 87.8551 372.556C87.8998 372.565 87.9438 372.574 87.9876 372.583V384.988H90.8368C90.8857 384.988 90.9343 384.991 90.982 384.994C90.6796 386.476 89.5387 387.653 88.0776 388.006H84.8499V400.484H90.8368C90.886 400.484 90.9346 400.484 90.9826 400.49C90.682 401.966 89.5459 403.143 88.0896 403.502H80.0844V419.109H77.0662V403.502H74.21V419.109H71.1918V403.502H51.1465V419.109H48.1283V403.502H42.3532C40.8948 403.143 39.7572 401.963 39.4587 400.484H58.4238V388.006H42.3653C40.9017 387.653 39.7593 386.473 39.4593 384.988H43.8071V372.514H42.3774C40.9093 372.164 39.7621 370.981 39.4599 369.496H52.1359V356.997H55.1541V369.496H71.5582V356.997H74.5764V369.496H77.6876V356.997H80.7058ZM61.442 388.006V400.484H63.7235V388.006H61.442ZM66.7417 388.006V400.484H81.8316V388.006H66.7417ZM46.8253 372.514V384.988H69.3277V372.514H46.8253ZM72.346 372.514V384.988H84.9694V372.514H72.346Z" fill="#FDA425"/>
<path fill-rule="evenodd" clip-rule="evenodd" d="M448.389 164.562C446.325 163.543 444.903 161.415 444.903 158.958V146.466C444.903 143.019 447.701 140.22 451.148 140.22H545.999C549.445 140.22 552.243 143.019 552.243 146.466V158.958C552.243 161.415 550.822 163.543 548.754 164.562C550.822 165.582 552.243 167.71 552.243 170.167V182.659C552.243 184.819 551.145 186.725 549.476 187.846C551.145 188.968 552.243 190.874 552.243 193.034V205.527C552.243 207.688 551.145 209.592 549.476 210.715C551.145 211.835 552.243 213.742 552.243 215.9V228.393C552.243 230.554 551.145 232.458 549.476 233.581C551.145 234.704 552.243 236.608 552.243 238.769V251.262C552.243 253.42 551.145 255.327 549.476 256.45C551.145 257.57 552.243 259.478 552.243 261.636V274.128C552.243 276.289 551.145 278.194 549.476 279.316C551.145 280.439 552.243 282.344 552.243 284.505V296.997C552.243 299.155 551.145 301.063 549.476 302.183C551.145 303.305 552.243 305.21 552.243 307.371V319.863C552.243 322.024 551.145 323.929 549.476 325.052C551.145 326.175 552.243 328.079 552.243 330.24V342.733C552.243 344.891 551.145 346.798 549.476 347.918C551.145 349.041 552.243 350.945 552.243 353.106V365.599C552.243 367.76 551.145 369.664 549.476 370.787C551.145 371.907 552.243 373.814 552.243 375.975V388.465C552.243 390.626 551.145 392.533 549.476 393.653C551.145 394.776 552.243 396.681 552.243 398.842V411.334C552.243 414.781 549.445 417.579 545.999 417.579H451.148C447.701 417.579 444.903 414.781 444.903 411.334V398.842C444.903 396.681 446.002 394.776 447.671 393.653C446.002 392.533 444.903 390.626 444.903 388.465V375.975C444.903 373.814 446.002 371.907 447.671 370.787C446.002 369.664 444.903 367.76 444.903 365.599V353.106C444.903 350.945 446.002 349.041 447.671 347.918C446.002 346.798 444.903 344.891 444.903 342.733V330.24C444.903 328.079 446.002 326.175 447.671 325.052C446.002 323.929 444.903 322.024 444.903 319.863V307.371C444.903 305.21 446.002 303.305 447.671 302.183C446.002 301.063 444.903 299.155 444.903 296.997V284.505C444.903 282.344 446.002 280.439 447.671 279.316C446.002 278.194 444.903 276.289 444.903 274.128V261.636C444.903 259.478 446.002 257.57 447.671 256.45C446.002 255.327 444.903 253.42 444.903 251.262V238.769C444.903 236.608 446.002 234.704 447.671 233.581C446.002 232.458 444.903 230.554 444.903 228.393V215.9C444.903 213.742 446.002 211.835 447.671 210.715C446.002 209.592 444.903 207.688 444.903 205.527V193.034C444.903 190.874 446.002 188.968 447.671 187.846C446.002 186.725 444.903 184.819 444.903 182.659V170.167C444.903 167.71 446.325 165.582 448.389 164.562Z" fill="#FFCD80"/>
<path fill-rule="evenodd" clip-rule="evenodd" d="M523.048 140.22V161.393H534.608C534.762 160.724 535.363 160.224 536.078 160.224C536.793 160.224 537.394 160.724 537.548 161.393H551.715C551.172 162.674 550.215 163.736 549.011 164.411H537.587V184.909H551.791C551.326 186.112 550.499 187.136 549.443 187.846C549.482 187.873 549.518 187.899 549.557 187.927H546.91V208.279C546.91 208.328 546.907 208.376 546.904 208.424H551.498C551.012 209.348 550.303 210.135 549.443 210.715C549.762 210.929 550.061 211.174 550.336 211.442H534.409V230.801H551.727C551.254 231.936 550.451 232.902 549.443 233.581C549.554 233.657 549.666 233.738 549.772 233.82H543.476V253.646H551.736C551.263 254.793 550.457 255.765 549.443 256.45C549.545 256.517 549.645 256.589 549.744 256.665H532.761V276.522H551.736C551.26 277.662 550.457 278.634 549.443 279.316C549.548 279.389 549.651 279.461 549.75 279.54H542.851V299.581H551.649C551.169 300.64 550.399 301.54 549.443 302.183C549.633 302.312 549.817 302.451 549.992 302.599H529.797V322.178H551.767C551.296 323.352 550.481 324.355 549.443 325.052C549.512 325.097 549.578 325.145 549.645 325.197H538.574V344.758H551.872C551.453 345.98 550.668 347.031 549.645 347.776H528.84V367.95H551.751C551.281 369.109 550.469 370.096 549.443 370.787C549.527 370.844 549.612 370.905 549.696 370.968H540.445V390.523H551.863C551.435 391.749 550.638 392.799 549.603 393.542H519.073V417.579H516.055V393.542H509.958V417.579H506.94V393.542H467.295V417.579H464.277V393.542H447.478C446.442 392.799 445.646 391.749 445.217 390.523H450.58V370.968H447.384C447.466 370.905 447.55 370.844 447.638 370.787C446.611 370.096 445.8 369.109 445.326 367.95H464.715V347.776H447.435C446.412 347.031 445.624 345.98 445.205 344.758H452.751V325.197H447.432C447.499 325.145 447.568 325.097 447.638 325.052C446.599 324.355 445.781 323.352 445.314 322.178H461.706V302.599H447.085C447.263 302.451 447.445 302.312 447.638 302.183C446.681 301.54 445.911 300.64 445.428 299.581H451.99V279.54H447.327C447.429 279.461 447.532 279.389 447.638 279.316C446.624 278.634 445.818 277.662 445.344 276.522H462.792V256.665H447.336C447.435 256.589 447.535 256.517 447.638 256.45C446.621 255.765 445.815 254.793 445.341 253.646H449.886V233.82H447.306C447.414 233.738 447.526 233.657 447.638 233.581C446.627 232.902 445.827 231.936 445.35 230.801H455.21V211.442H446.744C447.019 211.174 447.318 210.929 447.638 210.715C446.777 210.135 446.068 209.348 445.582 208.424H472.967V187.927H457.51C457.314 188.02 457.097 188.071 456.867 188.071C456.635 188.071 456.418 188.02 456.221 187.927H447.52C447.559 187.899 447.598 187.873 447.638 187.846C446.581 187.136 445.754 186.112 445.286 184.909H455.358V164.411H448.069C446.865 163.736 445.905 162.674 445.362 161.393H455.395C455.551 160.724 456.149 160.224 456.867 160.224C457.583 160.224 458.183 160.724 458.337 161.393H477.304V140.22H480.322V161.393H483.597V140.22H486.615V161.393H495.29C495.443 160.724 496.044 160.224 496.762 160.224C497.478 160.224 498.078 160.724 498.232 161.393H502.808C502.965 160.724 503.562 160.224 504.281 160.224C504.996 160.224 505.597 160.724 505.751 161.393H520.03V140.22H523.048ZM453.599 370.968V390.523H480.594V370.968H453.599ZM483.612 370.968V390.523H488.224V370.968H483.612ZM491.242 370.968V390.523H537.427V370.968H491.242ZM467.733 347.776V367.95H495.769V347.776H467.733ZM520.063 347.776H498.788V367.95H520.054V347.936L520.063 347.776ZM523.072 367.95H525.822V347.776H523.063C523.069 347.827 523.072 347.882 523.072 347.936V367.95ZM516.604 325.197V344.758H535.556V325.197H516.604ZM483.696 344.758H513.586V325.197H483.669C483.687 325.287 483.696 325.381 483.696 325.474V344.758ZM480.702 325.197H455.769V344.758H480.678V325.474C480.678 325.384 480.684 325.29 480.702 325.2V325.197ZM505.355 302.599V322.178H526.779V302.599H505.355ZM498.537 302.599V322.178H502.337V302.599H498.537ZM464.724 302.599V322.178H495.519V302.599H464.724ZM477.941 279.54V299.581H514.884V279.54H477.941ZM455.008 279.54V299.581H474.923V279.54H455.008ZM517.902 279.54V299.581H539.832V279.54H517.902ZM491.948 256.665V276.522H494.942V256.665H491.948ZM476.694 276.522H488.93V256.665H465.81V276.522H476.169C476.254 276.506 476.341 276.497 476.432 276.497C476.522 276.497 476.61 276.506 476.694 276.522ZM497.961 256.665V276.522H529.743V256.665H497.961ZM531.701 253.646H540.457V233.82H515.75V253.646H530.802C530.944 253.601 531.095 253.577 531.252 253.577C531.409 253.577 531.56 253.601 531.701 253.646ZM508.479 233.82V253.646H512.732V233.82H508.479ZM452.904 233.82V253.646H482.477V233.82H452.904ZM485.495 233.82V253.646H505.461V233.82H485.495ZM458.229 211.442V230.801H461.914V211.442H458.229ZM499.672 211.442V230.801H531.391V211.442H499.672ZM464.932 211.442V230.801H496.654V211.442H464.932ZM481.327 187.927H475.985V208.424H481.336C481.33 208.376 481.327 208.328 481.327 208.279V187.927ZM517.818 187.927H504.924C504.731 188.02 504.51 188.071 504.281 188.071C504.048 188.071 503.831 188.02 503.635 187.927H497.405C497.209 188.02 496.992 188.071 496.762 188.071C496.53 188.071 496.313 188.02 496.117 187.927H484.345V208.279C484.345 208.328 484.345 208.376 484.339 208.424H517.824C517.818 208.376 517.818 208.328 517.818 208.279V187.927ZM543.892 187.927H536.724C536.528 188.02 536.31 188.071 536.078 188.071C535.848 188.071 535.628 188.02 535.435 187.927H520.836V208.279C520.836 208.328 520.833 208.376 520.827 208.424H543.898C543.895 208.376 543.892 208.328 543.892 208.279V187.927ZM458.377 164.411V184.909H495.253V164.411H458.377ZM498.271 164.411V184.909H502.772V164.411H498.271ZM505.79 164.411V184.909H534.569V164.411H505.79Z" fill="#FDA425"/>
<path fill-rule="evenodd" clip-rule="evenodd" d="M287.928 303.027C286.259 301.907 285.161 300 285.161 297.842V285.349C285.161 281.902 287.959 279.101 291.405 279.101H386.253C389.703 279.101 392.501 281.902 392.501 285.349V297.842C392.501 300 391.402 301.907 389.733 303.027C391.402 304.15 392.501 306.054 392.501 308.215V320.708C392.501 322.869 391.402 324.773 389.733 325.896C391.402 327.016 392.501 328.923 392.501 331.084V343.574C392.501 345.735 391.402 347.642 389.733 348.762C391.402 349.885 392.501 351.789 392.501 353.951V366.443C392.501 368.604 391.402 370.509 389.733 371.631C391.402 372.751 392.501 374.659 392.501 376.817V389.309C392.501 391.47 391.402 393.375 389.733 394.498C391.402 395.62 392.501 397.525 392.501 399.686V412.178C392.501 415.625 389.703 418.423 386.253 418.423H291.405C287.959 418.423 285.161 415.625 285.161 412.178V399.686C285.161 397.525 286.259 395.62 287.928 394.498C286.259 393.375 285.161 391.47 285.161 389.309V376.817C285.161 374.659 286.259 372.751 287.928 371.631C286.259 370.509 285.161 368.604 285.161 366.443V353.951C285.161 351.789 286.259 349.885 287.928 348.762C286.259 347.642 285.161 345.735 285.161 343.574V331.084C285.161 328.923 286.259 327.016 287.928 325.896C286.259 324.773 285.161 322.869 285.161 320.708V308.215C285.161 306.054 286.259 304.15 287.928 303.027Z" fill="#FFCD80"/>
<path fill-rule="evenodd" clip-rule="evenodd" d="M370.261 300.461H391.974C391.491 301.506 390.727 302.393 389.783 303.027C389.988 303.166 390.184 303.317 390.374 303.48H381.419V323.023V323.026H392.104C391.636 324.2 390.818 325.199 389.783 325.896C389.852 325.944 389.925 325.993 389.994 326.044H372.12V345.457C372.12 345.545 372.114 345.629 372.099 345.711H392.173C391.723 346.945 390.896 347.999 389.831 348.729H384.323V368.272C384.323 368.357 384.314 368.441 384.302 368.523H392.194C391.76 369.751 390.954 370.801 389.909 371.541H373.463V391.428H392.179C391.736 392.662 390.915 393.713 389.855 394.446H383.583V418.423H380.565V394.446H361.094C361.094 394.473 361.097 394.497 361.097 394.522V418.423H358.079V394.522C358.079 394.497 358.079 394.473 358.079 394.446H343.193C343 394.537 342.789 394.585 342.566 394.585C342.339 394.585 342.128 394.537 341.935 394.446H322.597V418.423H319.579V394.446H314.303V418.423H311.285V394.446H287.902C286.843 393.713 286.022 392.662 285.578 391.428H306.404V371.541H287.848C286.807 370.801 285.998 369.751 285.563 368.523H293.23V348.729H287.93C286.861 347.999 286.034 346.945 285.584 345.711H304.113V326.044H287.764C287.836 325.993 287.905 325.944 287.978 325.896C286.94 325.199 286.125 324.2 285.654 323.026H292.255V303.48H287.386C287.573 303.317 287.77 303.166 287.978 303.027C287.03 302.393 286.269 301.506 285.784 300.461H299.658V279.101H302.677V300.461H305.767V279.101H308.785V300.461H336.505V279.101H339.523V300.461H367.243V279.101H370.261V300.461ZM309.422 371.541V391.428H341.056V371.541H309.422ZM344.075 371.541V391.428H364.469V371.541H344.075ZM367.487 371.541V391.428H370.445V371.541H367.487ZM296.248 348.729V368.523H320.665V348.729H296.248ZM353.292 348.729H323.683V368.523H353.374C353.323 368.369 353.292 368.203 353.292 368.031V348.729ZM381.304 348.729H356.311V368.031C356.311 368.203 356.283 368.369 356.229 368.523H381.323C381.311 368.441 381.304 368.357 381.304 368.272V348.729ZM307.131 326.044V345.711H330.324V326.044H307.131ZM333.342 326.044V345.711H336.909V326.044H333.342ZM369.102 326.044H339.928V345.711H354.337C354.481 345.662 354.638 345.638 354.801 345.638C354.964 345.638 355.121 345.662 355.269 345.711H369.126C369.111 345.629 369.102 345.545 369.102 345.457V326.044ZM295.273 303.48V323.026H321.851V303.48H295.273ZM324.87 303.48V323.026H348.901V303.48H324.87ZM351.919 303.48V323.026H355.957V303.48H351.919ZM378.401 303.48H358.976V323.026H378.401V323.023V303.48Z" fill="#FDA425"/>
<path fill-rule="evenodd" clip-rule="evenodd" d="M392.509 213.624H421.584C471.605 213.624 512.218 260.781 512.218 318.864C512.218 372.455 477.699 417.575 433.062 424.103C429.32 424.653 392.705 424.103 392.705 424.103C342.684 424.103 302.071 376.946 302.071 318.864C302.071 260.856 342.579 213.745 392.509 213.624Z" fill="#FDA425"/>
<path d="M392.704 424.104C442.758 424.104 483.336 376.986 483.336 318.864C483.336 260.742 442.758 213.624 392.704 213.624C342.649 213.624 302.071 260.742 302.071 318.864C302.071 376.986 342.649 424.104 392.704 424.104Z" fill="#FFCD80"/>
<path fill-rule="evenodd" clip-rule="evenodd" d="M393.13 256.324L390 256.15L390.072 251.48L395.532 251.784C396.825 251.856 397.852 252.96 397.832 254.249L397.71 262.146C402.486 262.627 407.059 263.65 411.424 265.211C417.001 267.204 422.246 270.078 427.153 273.826C427.709 274.247 428.056 274.885 428.114 275.567C428.166 276.249 427.924 276.91 427.442 277.378L416.754 287.738C415.948 288.517 414.678 288.576 413.745 287.875C408.905 284.245 403.465 281.895 397.423 280.82L397.018 307.136C419.488 313.171 430.154 324.575 429.599 340.722C429.332 349.495 425.953 356.587 419.5 361.975C413.6 367.089 405.788 370.16 396.032 371.11L395.824 384.68C395.804 385.967 394.744 386.951 393.451 386.879L388.092 386.581L388.164 381.916L391.193 382.085L391.398 368.809C391.416 367.627 392.312 366.683 393.489 366.609C403.082 365.985 410.72 363.279 416.398 358.362C421.87 353.793 424.707 347.799 424.934 340.382C425.433 325.855 414.969 316.344 394.179 311.188C393.083 310.912 392.305 309.905 392.322 308.788L392.796 277.996C392.806 277.352 393.084 276.754 393.56 276.336C394.035 275.923 394.669 275.728 395.312 275.809C402.532 276.665 409.029 279.064 414.795 282.995L422.157 275.86C418.322 273.22 414.278 271.132 410.012 269.612C405.355 267.944 400.45 266.952 395.285 266.62C394.004 266.539 392.99 265.439 393.009 264.156L393.13 256.324ZM396.323 352.227C399.731 351.388 402.233 350.079 403.757 348.191C404.707 346.971 405.41 345.577 405.865 344.014L410.35 345.507C409.724 347.62 408.763 349.504 407.455 351.188C404.957 354.28 400.641 356.436 394.393 357.412C393.703 357.518 392.988 357.309 392.445 356.834C391.908 356.36 391.6 355.674 391.611 354.97L391.865 338.467L396.531 338.726L396.323 352.227ZM371.804 284.777C372.655 282.712 373.75 281.015 375.065 279.675C375.096 279.642 375.134 279.609 375.166 279.576C378.127 276.92 381.619 275.486 385.629 275.275C386.286 275.242 386.945 275.493 387.432 275.96C387.919 276.431 388.19 277.08 388.18 277.739L387.972 291.254L383.306 290.994L383.47 280.338C381.599 280.823 379.916 281.733 378.413 283.067C377.48 284.034 376.723 285.265 376.112 286.744C376.099 286.783 376.08 286.822 376.061 286.861C375.331 288.388 374.976 290.271 374.942 292.481L370.276 292.221C370.321 289.293 370.847 286.816 371.804 284.777Z" fill="#FDA31F"/>
<path fill-rule="evenodd" clip-rule="evenodd" d="M373.514 302.195C371.256 299.443 370.125 296.125 370.186 292.218L374.852 292.478C374.811 295.157 375.532 297.444 377.085 299.328L377.14 299.396C378.353 300.982 380.328 302.29 383.024 303.419L383.215 290.991L387.881 291.251L387.641 306.831C387.63 307.555 387.282 308.22 386.701 308.632C386.126 309.039 385.374 309.152 384.677 308.928C379.289 307.201 375.605 304.893 373.514 302.195Z" fill="#FDA31F"/>
<path fill-rule="evenodd" clip-rule="evenodd" d="M396.645 327.554L396.473 338.724L391.806 338.465L392.022 324.461C392.033 323.777 392.343 323.145 392.868 322.73C393.399 322.315 394.089 322.159 394.762 322.306C401.261 323.732 405.577 326.074 407.857 329.012L407.906 329.085C410.122 332.164 411.212 335.64 411.153 339.521C411.119 341.692 410.826 343.687 410.292 345.505L405.807 344.012C406.236 342.568 406.46 340.983 406.486 339.262C406.529 336.473 405.768 333.974 404.189 331.759C402.754 329.931 400.218 328.582 396.645 327.554Z" fill="#FDA31F"/>
<path fill-rule="evenodd" clip-rule="evenodd" d="M382.75 324.071C361.149 318.041 351.016 306.951 351.749 291.428C352.081 282.064 355.198 274.903 360.959 269.881C366.231 265.286 373.796 262.476 383.712 261.59L383.837 253.473C383.857 252.184 384.917 251.196 386.203 251.268L390.026 251.481L389.954 256.15L388.468 256.068L388.347 263.9C388.329 265.088 387.426 266.036 386.244 266.105C376.513 266.697 369.111 269.091 364.098 273.461C359.219 277.718 356.699 283.844 356.413 291.813C355.755 305.717 365.704 314.909 385.607 320.051C386.69 320.331 387.463 321.333 387.446 322.44L386.949 354.714C386.938 355.372 386.648 355.98 386.16 356.398C385.666 356.814 385.013 356.993 384.358 356.896C378.526 356.023 373.598 354.44 369.582 352.184C366.046 350.39 362.891 348.232 360.11 345.705L351.055 352.741C355.324 356.045 360.069 358.895 365.271 361.297C371.344 364.031 377.74 365.626 384.466 366.09C385.747 366.181 386.755 367.276 386.735 368.553L386.531 381.829L388.118 381.917L388.046 386.582L384.123 386.363C382.836 386.292 381.809 385.191 381.829 383.904L382.034 370.553C375.568 369.874 369.391 368.202 363.487 365.542C356.888 362.498 351.012 358.785 345.834 354.408C345.291 353.948 344.97 353.266 344.968 352.562C344.96 351.858 345.277 351.201 345.821 350.777L358.723 340.755C359.634 340.041 360.971 340.151 361.82 341.012C364.597 343.818 367.862 346.162 371.596 348.052L371.695 348.103C374.671 349.781 378.215 351.017 382.323 351.83L382.75 324.071Z" fill="#FDA31F"/>
<path fill-rule="evenodd" clip-rule="evenodd" d="M388.334 234.45C424.892 234.45 454.255 272.471 454.255 318.995C454.255 365.517 424.892 403.537 388.334 403.537C387.001 403.537 385.918 404.619 385.918 405.951C385.918 407.284 387.001 408.368 388.334 408.368C427.206 408.368 459.082 368.46 459.082 318.995C459.082 269.528 427.206 229.622 388.334 229.622C387.001 229.622 385.918 230.704 385.918 232.036C385.918 233.369 387.001 234.45 388.334 234.45Z" fill="#FDA425"/>
<path fill-rule="evenodd" clip-rule="evenodd" d="M388.423 403.537C351.862 403.537 322.502 365.517 322.502 318.995C322.502 272.471 351.862 234.45 388.423 234.45C389.755 234.45 390.836 233.369 390.836 232.036C390.836 230.704 389.755 229.622 388.423 229.622C349.551 229.622 317.672 269.528 317.672 318.995C317.672 368.46 349.551 408.368 388.423 408.368C389.755 408.368 390.836 407.284 390.836 405.951C390.836 404.619 389.755 403.537 388.423 403.537Z" fill="#FDA425"/>
<path fill-rule="evenodd" clip-rule="evenodd" d="M459.051 415.467H424.469C423.138 415.467 422.054 414.383 422.054 413.052C422.054 411.718 423.138 410.637 424.469 410.637H466.008C466.289 410.637 466.558 410.686 466.808 410.773C464.297 412.479 461.71 414.045 459.051 415.467ZM498.506 374.808C497.63 376.447 496.722 378.059 495.774 379.637H462.565C461.231 379.637 460.15 378.557 460.15 377.223C460.15 375.889 461.231 374.808 462.565 374.808H498.506ZM505.058 360.067C504.467 361.7 503.839 363.309 503.184 364.896H466.008C464.674 364.896 463.594 363.816 463.594 362.482C463.594 361.151 464.674 360.067 466.008 360.067H505.058ZM511.967 311.054C512.07 312.657 512.139 314.265 512.178 315.883H479.017C477.683 315.883 476.602 314.803 476.602 313.469C476.602 312.138 477.683 311.054 479.017 311.054H511.967ZM506.691 282.628C507.192 284.222 507.666 285.834 508.104 287.458H471.975C470.644 287.458 469.561 286.377 469.561 285.043C469.561 283.712 470.644 282.628 471.975 282.628H506.691ZM501.735 269.725C502.457 271.313 503.148 272.922 503.8 274.555H470.675C469.344 274.555 468.26 273.474 468.26 272.14C468.26 270.809 469.344 269.725 470.675 269.725H501.735ZM469.612 229.622C471.695 231.137 473.72 232.746 475.688 234.451H437.477C436.146 234.451 435.063 233.368 435.063 232.037C435.063 230.703 436.146 229.622 437.477 229.622H469.612Z" fill="#FFCD80"/>
<path fill-rule="evenodd" clip-rule="evenodd" d="M312.522 39.268C314.658 31.8998 320.746 10.8385 325.139 1.42704L350.425 15.145C350.425 15.145 339.531 54.5055 337.182 65.7928L307.772 58.7991C308.665 52.6489 310.372 46.6808 312.522 39.268Z" fill="#82B5B2"/>
<path d="M325.935 47.3361C330.776 47.3361 334.701 43.2287 334.701 38.162C334.701 33.0954 330.776 28.988 325.935 28.988C321.094 28.988 317.169 33.0954 317.169 38.162C317.169 43.2287 321.094 47.3361 325.935 47.3361Z" fill="#A8CFCC" fill-opacity="0.63"/>
<path fill-rule="evenodd" clip-rule="evenodd" d="M319.718 49.4447C321.145 45.4651 329.11 24.8238 334.024 18.6204L356.911 31.4835C356.911 31.4835 344.576 64.2602 341.763 73.6979L314.653 66.3223C315.824 61.1608 317.484 55.6686 319.718 49.4447Z" fill="#A8CFCC"/>
<path d="M335.498 56.7286C340.339 56.7286 344.264 52.6212 344.264 47.5546C344.264 42.4879 340.339 38.3806 335.498 38.3806C330.656 38.3806 326.732 42.4879 326.732 47.5546C326.732 52.6212 330.656 56.7286 335.498 56.7286Z" fill="#82B5B2"/>
<path d="M392.167 51.1739C402.845 51.1739 411.501 42.5177 411.501 31.8397C411.501 21.1617 402.845 12.5055 392.167 12.5055C381.489 12.5055 372.833 21.1617 372.833 31.8397C372.833 42.5177 381.489 51.1739 392.167 51.1739Z" fill="#E86135"/>
<path fill-rule="evenodd" clip-rule="evenodd" d="M379.275 17.4083C382.694 14.3596 387.201 12.5055 392.135 12.5055C402.808 12.5055 411.47 21.169 411.47 31.8397C411.47 35.5008 410.45 38.9259 408.681 41.8448C394.324 35.3945 396.427 19.8322 396.427 19.8322C388.535 22.4107 382.64 19.7994 379.275 17.4083Z" fill="black"/>
<path fill-rule="evenodd" clip-rule="evenodd" d="M309.303 277.572C309.303 277.572 303.65 266.634 309.303 258.439L299.267 240.807C299.267 240.807 294.39 237.683 288.851 234.134C276.329 226.108 269.145 211.925 270.084 197.085C270.156 195.954 270.286 194.917 270.482 194.01C264.724 188.576 259.967 176.381 261.718 164.712C261.718 164.712 261.718 164.712 261.718 164.712C264.153 148.459 277.654 136.144 294.061 135.209C320.464 133.712 365.777 132.688 393.635 140.677L387.369 125.078C387.369 125.078 342.79 141.019 331.499 104.413C305.907 114.746 277.409 122.3 249.231 126.388C237.451 128.102 225.828 122.391 219.987 112.017C219.975 112.024 219.975 112.024 219.975 112.024C215.035 103.25 216.613 92.2497 223.821 85.2172C231.067 78.2255 243.427 69.1811 264.534 58.7754C264.534 58.7754 285.676 47.5953 298.057 41.0484C303.589 38.1238 310.148 37.869 315.889 40.3564C328.085 45.6389 348.235 54.3685 348.235 54.3685L350.589 48.4265C364.582 50.7566 378.33 54.9954 391.809 60.2411C406.125 65.8299 417.217 77.4869 422.085 92.0598C434.074 127.947 456.71 196.85 459.68 214.111H468.167C472.936 214.111 477.068 217.419 478.109 222.073C478.921 225.71 479.706 229.22 479.706 229.22C479.706 229.22 485.112 235.265 486.693 240.807C487.336 243.065 483.735 245.696 479.706 241.468C478.514 240.215 466.936 231.079 461.736 230.509C457.758 230.071 454.238 229.615 450.957 229.214C440.886 227.979 431.946 222.166 426.727 213.459C423.238 207.64 420.03 202.285 420.03 202.285C420.03 202.285 409.152 219.731 379.293 216.583L383.932 276.887C383.932 276.887 377.974 275.477 375.982 265.741C375.982 265.741 342.331 261.258 323.166 253.142C323.166 253.142 315.605 260.649 309.303 277.572Z" fill="url(#paint2_linear)"/>
<path fill-rule="evenodd" clip-rule="evenodd" d="M459.528 213.247C459.585 213.548 459.637 213.835 459.685 214.11H463.702C465.646 215.474 468.601 217.617 471.803 220.17L472.832 219.011C473.276 218.513 474.04 218.468 474.538 218.912C475.036 219.352 475.081 220.116 474.637 220.614L473.68 221.692C475.497 223.192 477.345 224.797 479.092 226.445L479.711 229.219L460.041 214.52C459.61 214.237 459.419 213.72 459.528 213.247Z" fill="#D7441E"/>
<path fill-rule="evenodd" clip-rule="evenodd" d="M344.701 259.86L361.419 212.395C361.697 211.607 362.56 211.194 363.345 211.471C364.129 211.749 364.543 212.609 364.268 213.397L347.656 260.554C346.675 260.33 345.691 260.098 344.701 259.86ZM299.237 240.806C299.237 240.806 305.709 244.286 311.277 247.165C318.334 250.82 325.725 254.237 323.136 253.141C323.136 253.141 322.414 253.859 321.231 255.347C314.884 252.504 307.577 248.671 301.975 245.617L299.237 240.806ZM268.15 191.402C272.994 168.166 291.103 154.964 312.171 147.621C341.948 137.24 377.603 138.647 388.755 139.414C390.394 139.8 392.775 140.31 394.309 140.749C394.396 140.966 395.069 141.382 395.045 141.63C394.958 142.459 396.107 143.065 395.277 142.98C395.277 142.98 348.972 140.054 313.164 150.471C290.931 156.938 275.562 173.049 270.453 194.008C269.662 193.261 268.889 192.386 268.15 191.402Z" fill="#D7441E"/>
<path fill-rule="evenodd" clip-rule="evenodd" d="M379.597 219.567C374.035 218.713 366.978 216.398 359.535 213.371C337.725 204.509 312.478 189.678 312.478 189.678C311.76 189.257 311.521 188.331 311.941 187.613C312.363 186.895 313.29 186.654 314.008 187.076C314.008 187.076 339.041 201.787 360.67 210.576C368.475 213.748 380.005 216.651 379.329 216.582L379.597 219.567Z" fill="#8A2208"/>
<path fill-rule="evenodd" clip-rule="evenodd" d="M391.915 136.389L387.369 125.078C387.369 125.078 342.79 141.019 331.499 104.413C305.907 114.746 277.409 122.3 249.231 126.388C237.451 128.102 225.828 122.391 219.987 112.017C219.975 112.024 219.975 112.024 219.975 112.024C215.035 103.25 216.613 92.2497 223.821 85.2172C231.067 78.2255 243.427 69.1811 264.534 58.7754C264.534 58.7754 285.676 47.5953 298.057 41.0484C303.589 38.1238 310.148 37.869 315.889 40.3564C328.085 45.6389 348.235 54.3685 348.235 54.3685L350.589 48.4265C364.582 50.7566 378.33 54.9954 391.809 60.2411C406.125 65.8299 417.217 77.4869 422.085 92.0598C429.287 113.613 440.327 147.077 448.639 174.107L413.894 184.703C406.357 168.897 398.715 153.22 392.036 136.409L391.915 136.389Z" fill="#D7441E"/>
<path fill-rule="evenodd" clip-rule="evenodd" d="M380.903 126.852C379.798 121.333 379.539 115.541 379.641 109.633C379.644 109.308 379.88 109.031 380.2 108.972C380.52 108.912 380.837 109.084 380.96 109.385C383.906 116.566 391.12 134.14 391.12 134.14H391.008L387.368 125.08C387.368 125.08 384.866 125.974 380.903 126.852ZM285.376 91.1443L248.285 112.039C247.558 112.447 247.301 113.368 247.709 114.094C248.119 114.82 249.04 115.077 249.767 114.668L286.858 93.774C287.585 93.3654 287.842 92.4442 287.431 91.7186C287.024 90.9927 286.103 90.7356 285.376 91.1443ZM323.686 107.448C325.09 97.2972 328.428 90.179 330.752 86.2523C330.9 86.0356 331.187 85.961 331.425 86.0772C331.661 86.1931 331.778 86.4648 331.697 86.7162C329.297 95.342 331.359 103.865 331.492 104.389L331.498 104.414C328.923 105.454 326.318 106.465 323.686 107.448Z" fill="#8A2208"/>
<path fill-rule="evenodd" clip-rule="evenodd" d="M266.136 57.9185L298.039 41.0484C303.572 38.1238 310.13 37.869 315.871 40.3564L347.339 53.9885C347.55 54.1291 347.743 54.2559 347.915 54.3685C353.161 57.8059 349.017 61.2045 347.55 60.7195C351.133 62.422 351.012 65.2513 350.167 66.4773C348.776 68.4998 343.796 67.7619 343.796 67.7619C345.181 68.256 346.452 70.9594 345.377 72.9647C343.651 76.1885 338.927 74.2299 338.927 74.2299C339.784 78.7256 335.136 78.7404 329.465 77.5394C325.073 76.6095 323.06 75.6256 319.324 74.6935C313.284 90.7982 295.25 88.9381 295.25 88.9381L283.368 95.6748L266.136 57.9185Z" fill="url(#paint3_linear)"/>
<path fill-rule="evenodd" clip-rule="evenodd" d="M338.94 74.3229L318.745 66.4836C318.123 66.2424 317.816 65.5422 318.057 64.9211C318.298 64.2999 318.999 63.9914 319.62 64.2326L344.611 73.9344C342.553 75.7345 338.922 74.2293 338.922 74.2293C338.928 74.261 338.934 74.2921 338.94 74.3229ZM344.095 67.907L321.136 58.9936C320.514 58.7524 320.206 58.0525 320.447 57.4313C320.689 56.8102 321.389 56.5017 322.011 56.7426L348.327 66.9593C348.568 67.0528 348.761 67.2155 348.894 67.4162C346.902 68.2224 343.79 67.7612 343.79 67.7612C343.893 67.798 343.996 67.8469 344.095 67.907ZM347.79 60.7629L323.888 51.4839C323.266 51.2427 322.956 50.5425 323.197 49.9214C323.439 49.3002 324.139 48.9917 324.761 49.2329L350.198 59.1083C349.67 60.1489 348.532 60.8069 347.79 60.7629Z" fill="#D7441E"/>
<path fill-rule="evenodd" clip-rule="evenodd" d="M275.416 408.198C273.707 407.048 272.578 405.095 272.578 402.883V390.082C272.578 386.551 275.446 383.684 278.98 383.684H376.17C379.701 383.684 382.569 386.551 382.569 390.082V402.883C382.569 405.095 381.443 407.048 379.732 408.198C381.443 409.348 382.569 411.301 382.569 413.513V426.313C382.569 429.848 379.701 432.715 376.17 432.715H278.98C275.446 432.715 272.578 429.848 272.578 426.313V413.513C272.578 411.301 273.707 409.348 275.416 408.198Z" fill="#FFDBA3"/>
<path fill-rule="evenodd" clip-rule="evenodd" d="M353.516 405.605H381.956C381.461 406.659 380.686 407.555 379.726 408.198C379.922 408.331 380.109 408.472 380.29 408.623H371.076V432.715H368.057V408.623H342.828V432.715H339.81V408.623H335.959V432.715H332.94V408.623H293.969V432.715H290.951V408.623H274.848C275.027 408.472 275.214 408.331 275.41 408.198C274.453 407.555 273.677 406.659 273.182 405.605H308.511V383.684H311.529V405.605H315.38V383.684H318.398V405.605H350.497V383.684H353.516V405.605Z" fill="#FDA425"/>
<defs>
<linearGradient id="paint0_linear" x1="100.594" y1="305.729" x2="99.9813" y2="478.246" gradientUnits="userSpaceOnUse">
<stop stop-color="#A8CFCC"/>
<stop offset="1" stop-color="#59A09B"/>
</linearGradient>
<linearGradient id="paint1_linear" x1="120.405" y1="170.534" x2="128.377" y2="323.691" gradientUnits="userSpaceOnUse">
<stop stop-color="#82B5B2"/>
<stop offset="0.45" stop-color="#A7C6C1"/>
<stop offset="1" stop-color="#FFF0E6"/>
</linearGradient>
<linearGradient id="paint2_linear" x1="403.122" y1="201.881" x2="232.866" y2="51.014" gradientUnits="userSpaceOnUse">
<stop stop-color="#E86135"/>
<stop offset="0.48" stop-color="#EE734F"/>
<stop offset="1" stop-color="#FFA396"/>
</linearGradient>
<linearGradient id="paint3_linear" x1="308.41" y1="72.1703" x2="320.624" y2="-8.02616" gradientUnits="userSpaceOnUse">
<stop stop-color="#E86135"/>
<stop offset="1" stop-color="#FFA396"/>
</linearGradient>
</defs>
</svg>
