<svg width="50" height="50" viewBox="0 0 50 50" fill="none" xmlns="http://www.w3.org/2000/svg">
<path d="M20.3389 49.5221C21.3007 49.7594 22.4372 49.9306 23.7287 49.9831V48.2882C22.5677 48.2407 21.4101 48.0958 20.3389 47.8594V49.5221Z" fill="#8A2208"/>
<path d="M16.9492 37.2881C16.9492 37.755 17.556 38.316 18.6441 38.7932V37.2042C18.0111 36.9771 17.4357 36.7118 16.9492 36.405V37.2881Z" fill="#8A2208"/>
<path d="M16.9492 40.678C16.9492 41.1449 17.556 41.7059 18.6441 42.1831V40.5941C18.0111 40.367 17.4357 40.1017 16.9492 39.7949V40.678Z" fill="#8A2208"/>
<path d="M25.4238 46.5932C26.7154 46.5407 27.8518 46.3695 28.8137 46.1322V44.4695C27.7425 44.7059 26.5848 44.8508 25.4238 44.8983V46.5932Z" fill="#8A2208"/>
<path d="M20.3389 39.3525C21.3007 39.5898 22.4372 39.761 23.7287 39.8135V38.1186C22.5677 38.0712 21.4101 37.9263 20.3389 37.6898V39.3525Z" fill="#8A2208"/>
<path d="M16.9492 47.4576C16.9492 47.9246 17.556 48.4856 18.6441 48.9627V47.3737C18.0111 47.1466 17.4357 46.8814 16.9492 46.5746V47.4576Z" fill="#8A2208"/>
<path d="M25.4238 49.9831C26.7154 49.9306 27.8518 49.7594 28.8137 49.5221V47.8594C27.7425 48.0958 26.5848 48.2407 25.4238 48.2882V49.9831Z" fill="#8A2208"/>
<path d="M20.3389 46.1322C21.3007 46.3695 22.4372 46.5407 23.7287 46.5932V44.8983C22.5677 44.8508 21.4101 44.7059 20.3389 44.4695V46.1322Z" fill="#8A2208"/>
<path d="M20.3389 42.7424C21.3007 42.9797 22.4372 43.1509 23.7287 43.2034V41.5085C22.5677 41.4611 21.4101 41.3162 20.3389 41.0797V42.7424Z" fill="#8A2208"/>
<path d="M16.9492 44.0679C16.9492 44.5348 17.556 45.0958 18.6441 45.573V43.984C18.0111 43.7568 17.4357 43.4916 16.9492 43.1848V44.0679Z" fill="#8A2208"/>
<path d="M0 47.4576C0 47.9246 0.60678 48.4856 1.69492 48.9627V47.3737C1.06186 47.1466 0.486441 46.8814 0 46.5746V47.4576Z" fill="#8A2208"/>
<path d="M0 44.0679C0 44.5348 0.60678 45.0958 1.69492 45.573V43.984C1.06186 43.7568 0.486441 43.4916 0 43.1848V44.0679Z" fill="#8A2208"/>
<path d="M3.38965 49.5221C4.35151 49.7594 5.48795 49.9306 6.77948 49.9831V48.2882C5.61846 48.2407 4.46083 48.0958 3.38965 47.8594V49.5221Z" fill="#8A2208"/>
<path d="M25.4239 8.47461H23.729V33.0509H25.4239V8.47461Z" fill="#8A2208"/>
<path d="M13.5591 45.573C14.6472 45.0958 15.254 44.5348 15.254 44.0679V43.1848C14.7676 43.4916 14.1921 43.7568 13.5591 43.984V45.573Z" fill="#8A2208"/>
<path d="M8.47461 46.5932C9.76613 46.5407 10.9026 46.3695 11.8644 46.1322V44.4695C10.7933 44.7059 9.63563 44.8508 8.47461 44.8983V46.5932Z" fill="#8A2208"/>
<path d="M3.38965 46.1322C4.35151 46.3695 5.48795 46.5407 6.77948 46.5932V44.8983C5.61846 44.8508 4.46083 44.7059 3.38965 44.4695V46.1322Z" fill="#8A2208"/>
<path d="M7.62712 43.2204C11.8395 43.2204 15.2542 42.0821 15.2542 40.678C15.2542 39.2739 11.8395 38.1356 7.62712 38.1356C3.41478 38.1356 0 39.2739 0 40.678C0 42.0821 3.41478 43.2204 7.62712 43.2204Z" fill="#8A2208"/>
<path d="M8.47461 49.9831C9.76613 49.9306 10.9026 49.7594 11.8644 49.5221V47.8594C10.7933 48.0958 9.63563 48.2407 8.47461 48.2882V49.9831Z" fill="#8A2208"/>
<path d="M13.5591 48.9627C14.6472 48.4856 15.254 47.9246 15.254 47.4576V46.5746C14.7676 46.8814 14.1921 47.1466 13.5591 47.3737V48.9627Z" fill="#8A2208"/>
<path d="M42.373 49.9831C43.6646 49.9306 44.801 49.7594 45.7629 49.5221V47.8594C44.6917 48.0958 43.5341 48.2407 42.373 48.2882V49.9831Z" fill="#8A2208"/>
<path d="M37.2881 49.5221C38.25 49.7594 39.3864 49.9306 40.6779 49.9831V48.2882C39.5169 48.2407 38.3593 48.0958 37.2881 47.8594V49.5221Z" fill="#8A2208"/>
<path d="M37.2881 46.1322C38.25 46.3695 39.3864 46.5407 40.6779 46.5932V44.8983C39.5169 44.8508 38.3593 44.7059 37.2881 44.4695V46.1322Z" fill="#8A2208"/>
<path d="M42.373 46.5932C43.6646 46.5407 44.801 46.3695 45.7629 46.1322V44.4695C44.6917 44.7059 43.5341 44.8508 42.373 44.8983V46.5932Z" fill="#8A2208"/>
<path d="M37.2881 42.7424C38.25 42.9797 39.3864 43.1509 40.6779 43.2034V41.5085C39.5169 41.4611 38.3593 41.3162 37.2881 41.0797V42.7424Z" fill="#8A2208"/>
<path d="M41.5256 39.8305C45.7379 39.8305 49.1527 38.6922 49.1527 37.2881C49.1527 35.884 45.7379 34.7457 41.5256 34.7457C37.3132 34.7457 33.8984 35.884 33.8984 37.2881C33.8984 38.6922 37.3132 39.8305 41.5256 39.8305Z" fill="#8A2208"/>
<path d="M47.4575 42.1831C48.5457 41.7059 49.1524 41.1449 49.1524 40.678V39.7949C48.666 40.1017 48.0906 40.367 47.4575 40.5941V42.1831Z" fill="#8A2208"/>
<path d="M42.373 43.2034C43.6646 43.1509 44.801 42.9797 45.7629 42.7424V41.0797C44.6917 41.3162 43.5341 41.4611 42.373 41.5085V43.2034Z" fill="#8A2208"/>
<path d="M47.4575 45.573C48.5457 45.0958 49.1524 44.5348 49.1524 44.0679V43.1848C48.666 43.4916 48.0906 43.7568 47.4575 43.984V45.573Z" fill="#8A2208"/>
<path d="M47.4575 48.9627C48.5457 48.4856 49.1524 47.9246 49.1524 47.4576V46.5746C48.666 46.8814 48.0906 47.1466 47.4575 47.3737V48.9627Z" fill="#8A2208"/>
<path d="M27.1187 31.5204V34.7458H22.034V31.5195C18.7128 31.9534 16.9492 33.1322 16.9492 33.8983C16.9492 34.9348 19.9204 36.4407 24.5763 36.4407C29.2323 36.4407 32.2035 34.9348 32.2035 33.8983C32.2035 33.1322 30.439 31.9543 27.1187 31.5204Z" fill="#8A2208"/>
<path d="M30.5083 42.1831C31.5964 41.7059 32.2032 41.1449 32.2032 40.678V39.7949C31.7168 40.1017 31.1414 40.367 30.5083 40.5941V42.1831Z" fill="#8A2208"/>
<path d="M30.5083 45.573C31.5964 45.0958 32.2032 44.5348 32.2032 44.0679V43.1848C31.7168 43.4916 31.1414 43.7568 30.5083 43.984V45.573Z" fill="#8A2208"/>
<path d="M30.5083 48.9627C31.5964 48.4856 32.2032 47.9246 32.2032 47.4576V46.5746C31.7168 46.8814 31.1414 47.1466 30.5083 47.3737V48.9627Z" fill="#8A2208"/>
<path d="M25.4238 39.8135C26.7154 39.761 27.8518 39.5898 28.8137 39.3525V37.6898C27.7425 37.9263 26.5848 38.0712 25.4238 38.1186V39.8135Z" fill="#8A2208"/>
<path d="M30.5083 38.7932C31.5964 38.316 32.2032 37.755 32.2032 37.2881V36.405C31.7168 36.7118 31.1414 36.9771 30.5083 37.2042V38.7932Z" fill="#8A2208"/>
<path d="M33.8984 44.0679C33.8984 44.5348 34.5052 45.0958 35.5934 45.573V43.984C34.9603 43.7568 34.3849 43.4916 33.8984 43.1848V44.0679Z" fill="#8A2208"/>
<path d="M33.8984 47.4576C33.8984 47.9246 34.5052 48.4856 35.5934 48.9627V47.3737C34.9603 47.1466 34.3849 46.8814 33.8984 46.5746V47.4576Z" fill="#8A2208"/>
<path d="M33.8984 40.678C33.8984 41.1449 34.5052 41.7059 35.5934 42.1831V40.5941C34.9603 40.367 34.3849 40.1017 33.8984 39.7949V40.678Z" fill="#8A2208"/>
<path d="M25.4238 43.2034C26.7154 43.1509 27.8518 42.9797 28.8137 42.7424V41.0797C27.7425 41.3162 26.5848 41.4611 25.4238 41.5085V43.2034Z" fill="#8A2208"/>
<path d="M22.0337 21.7482C20.6634 18.911 17.7685 16.9491 14.4066 16.9491H7.62695C7.62695 21.6296 11.421 25.4237 16.1015 25.4237H22.0337V21.7482Z" fill="#8A2208"/>
<path d="M41.5254 11.8644H34.7458C31.3839 11.8644 28.489 13.8262 27.1187 16.6635V20.339H33.0509C37.7314 20.339 41.5254 16.5449 41.5254 11.8644Z" fill="#8A2208"/>
<path d="M36.4406 0H31.3558C27.6118 0 24.5762 3.03559 24.5762 6.77966H29.6609C33.405 6.77966 36.4406 3.74407 36.4406 0Z" fill="#8A2208"/>
<path d="M19.4916 6.77966H24.5763C24.5763 3.03559 21.5407 0 17.7967 0H12.7119C12.7119 3.74407 15.7475 6.77966 19.4916 6.77966Z" fill="#8A2208"/>
<path d="M43.2202 26.2712V22.8814H45.7626C48.099 22.8814 49.9998 20.9805 49.9998 18.6441V17.7966H45.7626C43.4261 17.7966 41.5253 19.6975 41.5253 22.0339V22.8814V22.9034C40.8151 22.3653 39.9405 22.0339 38.9829 22.0339H34.7456V22.8814C34.7456 25.2178 36.6465 27.1187 38.9829 27.1187H41.5253V30.5085V31.356V33.0509C42.0922 33.0509 42.66 33.0729 43.2202 33.117V31.356H45.7626C48.099 31.356 49.9998 29.4551 49.9998 27.1187V26.2712H45.7626C44.8049 26.2712 43.9304 26.6026 43.2202 27.1407V27.1187V26.2712Z" fill="#8A2208"/>
<path d="M8.47458 28.8356V26.2711V25.4237C8.47458 23.0872 6.57373 21.1864 4.23729 21.1864H0V22.0339C0 24.3703 1.90085 26.2711 4.23729 26.2711H6.77966V30.5305C6.06949 29.9923 5.19492 29.661 4.23729 29.661H0V30.5084C0 32.8449 1.90085 34.7457 4.23729 34.7457H6.77966V36.4576C7.06186 36.4466 7.34492 36.4406 7.62712 36.4406C7.90932 36.4406 8.19237 36.4466 8.47458 36.4576V34.7457V33.8983V33.0508H11.0169C13.3534 33.0508 15.2542 31.15 15.2542 28.8135V27.9661H11.0169C10.0593 27.9661 9.18475 28.2974 8.47458 28.8356Z" fill="#8A2208"/>
</svg>
